<svg xmlns="http://www.w3.org/2000/svg" aria-hidden="true" style="position:absolute;width:0;height:0;overflow:hidden">
  <defs>
    <symbol id="icon-icons8--" viewBox="0 0 32 32">
      <path d="M16 1.333c-7.72 0-14 4.187-14 9.333 0 3.489 2.79 6.59 7.333 8.211v3.464l-.247.061c-.718.176-1.46.357-1.996.587-.982.421-1.741 1.201-2.138 2.193s-.382 2.079.039 3.061a3.998 3.998 0 0 0 5.253 2.1c.766-.329 1.596-.57 2.453-.744.137.215.292.414.466.592.747.767 1.783 1.141 2.837 1.141s2.09-.374 2.837-1.141c.145-.149.275-.315.395-.49.624.155 1.22.35 1.767.6a4.007 4.007 0 0 0 5.305-1.966 4.006 4.006 0 0 0-1.967-5.305c-.391-.179-.958-.318-1.505-.452l-.163-.04v-3.661c4.542-1.622 7.332-4.723 7.332-8.212 0-5.147-6.28-9.333-14-9.333zm0 2c6.617 0 12 3.29 12 7.333 0 2.412-2.056 4.704-5.337 6.065.023-2.355-1.195-4.732-3.663-4.732-1.404 0-2.402.771-3 1.869-.598-1.097-1.596-1.869-3-1.869-2.467 0-3.686 2.377-3.663 4.732C6.055 15.37 4 13.078 4 10.666c0-4.043 5.383-7.333 12-7.333zm-2.333 2a1 1 0 0 0 0 2 1 1 0 0 0 0-2zm-3 .667a.667.667 0 1 0 0 1.334.667.667 0 1 0 0-1.334zm2.021 3.496c-1.349.018-2.352.591-2.352.591A.667.667 0 1 0 11 11.243l-.003.002s1.671-.953 3.339 0a.667.667 0 0 0 .665-1.157l-.003-.002a4.433 4.433 0 0 0-1.712-.561 4.907 4.907 0 0 0-.598-.03zm6.666 0c-1.349.018-2.352.591-2.352.591a.667.667 0 1 0 .664 1.156l-.003.002s1.671-.953 3.339 0a.667.667 0 0 0 .665-1.157l-.003-.002a4.433 4.433 0 0 0-1.712-.561 4.907 4.907 0 0 0-.598-.03zM13 13.333c1.127 0 1.833.884 2.143 2h-4.286c.311-1.116 1.016-2 2.143-2zm6 0c1.129 0 1.843.881 2.152 2h-4.305c.31-1.119 1.023-2 2.152-2zm-8.333 3.334H12c0 .736.298 1.333.667 1.333.368 0 .667-.597.667-1.333h2a4.9 4.9 0 0 1-.26 1.579c-.471.268-.812.719-1.09 1.165-.087.14-.167.292-.247.444a1.928 1.928 0 0 1-.736.145c-1.556 0-2.333-1.667-2.333-3.333zm6 0h2c0 .736.298 1.333.667 1.333.368 0 .667-.597.667-1.333h1.333c0 1.667-.778 3.333-2.333 3.333-.269 0-.513-.053-.736-.145a7.507 7.507 0 0 0-.247-.444c-.278-.446-.619-.897-1.09-1.165a4.9 4.9 0 0 1-.26-1.579zM16 20.073c.067.062.182.174.319.395.284.457.593 1.191.849 2.004.512 1.625.832 3.627.832 4.529s-.256 1.449-.595 1.797c-.339.348-.803.536-1.405.536s-1.066-.189-1.405-.536c-.339-.348-.595-.895-.595-1.797s.32-2.904.832-4.529c.256-.813.565-1.546.849-2.004a1.81 1.81 0 0 1 .319-.395zm-4.667.819a3.236 3.236 0 0 0 1.667.441c.037 0 .071-.005.107-.006-.063.179-.124.359-.182.544a22.279 22.279 0 0 0-.72 3.055 17.86 17.86 0 0 0-3.801 1.129.667.667 0 1 0 .53 1.222l-.004.002a16.407 16.407 0 0 1 3.111-.964c-.017.235-.04.481-.04.685 0 .234.018.459.044.68-.898.201-1.77.474-2.59.826a2.001 2.001 0 0 1-1.575-3.677c.384-.165 1.074-.334 1.682-.483a21.16 21.16 0 0 0 1.068-.28l.704-.217v-2.956zm9.334 0v3.113l.664.237c.273.097.638.185 1.025.28.414.101.929.227 1.146.327 1.002.46 1.444 1.65.984 2.652s-1.651 1.444-2.652.984a12.396 12.396 0 0 0-1.893-.677c.037-.261.06-.529.06-.809 0-.168-.021-.376-.033-.565.849.213 1.664.49 2.421.837a.667.667 0 1 0 .562-1.21l-.004-.002c-.983-.451-2.04-.79-3.135-1.031a22.187 22.187 0 0 0-.734-3.159 16.507 16.507 0 0 0-.182-.544c.036.001.07.006.107.006.64 0 1.194-.163 1.667-.441z"/>
    </symbol>
    <symbol id="icon-icons8----" viewBox="0 0 32 32">
      <path d="M5.22 1.28a1.932 1.932 0 0 0-1.915 2.064l1.816 24.224a.642.642 0 0 0 .638.593h8l1.727 2.304a.64.64 0 0 0 1.023.002l.001-.002 1.727-2.304h8a.64.64 0 0 0 .638-.59v-.002l1.816-24.224a1.93 1.93 0 0 0-1.914-2.064H5.216zm0 1.28h21.561c.382 0 .666.307.637.689l-1.34 17.871h-2.271a.66.66 0 0 0-.229.001l.004-.001h-7.501l-.016-.002h-.003a.515.515 0 0 0-.042-.002h-.04.001a.587.587 0 0 0-.074.005h.003-7.511a.504.504 0 0 0-.081-.006h-.002a.582.582 0 0 0-.093.007h.003H5.92L4.58 3.251a.63.63 0 0 1 .639-.689zm6.94 1.92c-2.467 0-4.48 2.013-4.48 4.48s2.013 4.48 4.48 4.48c.46 0 .902-.074 1.321-.204.084.484.301.926.616 1.276a.64.64 0 1 0 .95-.856 1.266 1.266 0 0 1-.329-.856c0-.128.025-.249.059-.365l.003-.011.001-.004a1.264 1.264 0 0 1 1.561-.849.67.67 0 0 0 .079.025l.004.001c.357.125.637.398.767.752.01.049.024.093.042.134l-.002-.004a1.26 1.26 0 0 1-.283 1.174.64.64 0 1 0 .95.858v-.001c.315-.35.531-.791.615-1.275.419.129.861.204 1.321.204 2.467 0 4.48-2.013 4.48-4.48s-2.013-4.48-4.48-4.48c-1.666 0-3.068.958-3.84 2.314-.772-1.356-2.174-2.314-3.84-2.314zm0 1.28a3.19 3.19 0 0 1 2.821 4.696 2.58 2.58 0 0 0-1.325 1.325A3.19 3.19 0 0 1 8.96 8.96a3.19 3.19 0 0 1 3.2-3.2zm7.68 0c1.775 0 3.2 1.425 3.2 3.2a3.19 3.19 0 0 1-4.696 2.821 2.58 2.58 0 0 0-1.325-1.325A3.19 3.19 0 0 1 19.84 5.76zM12.8 7.68a1.28 1.28 0 1 0 0 2.56 1.28 1.28 0 1 0 0-2.56zm6.4 0a1.28 1.28 0 1 0 0 2.56 1.28 1.28 0 1 0 0-2.56zm5.28 5.11a.64.64 0 0 0-.486.246l-.001.001A7.985 7.985 0 0 1 17.786 16h-.398a.66.66 0 0 0-.212 0l.004-.001h-2.351a.671.671 0 0 0-.212 0l.004-.001h-.404a7.979 7.979 0 0 1-6.206-2.963.64.64 0 0 0-.5-.245h-.003a.64.64 0 0 0-.491 1.051l-.001-.001c1.169 1.446 2.755 2.448 4.506 2.985v2.372c0 .353.287.64.64.64h2.56a.64.64 0 0 0 .64-.64v-1.92h1.28v1.92c0 .353.287.64.64.64h2.56a.64.64 0 0 0 .64-.64v-2.372c1.751-.537 3.338-1.54 4.508-2.985a.64.64 0 0 0-.489-1.053h-.019.001zM12.8 17.121c.423.066.845.137 1.28.144v1.295H12.8v-1.439zm6.4 0v1.439h-1.28v-1.295c.435-.006.857-.078 1.28-.144zM6.018 22.4h2.071l3.661 3.051a.64.64 0 0 0 .821 0l-.001.001 1.286-1.071.723.71-.895 1.79h-7.33l-.336-4.48zm4.07 0h4.146l-2.074 1.727-2.072-1.727zm7.679 0h4.145l-2.073 1.727-2.072-1.727zm6.144 0h2.071l-.336 4.48h-7.331l-.898-1.796.709-.719 1.304 1.086a.64.64 0 0 0 .821 0l-.001.001 3.661-3.051zM16 22.593l1.139.95-.766.777h-.751l-.777-.764 1.156-.964zm-.245 3.007h.49l.926 1.852L16 29.013l-1.171-1.561.926-1.852z"/>
    </symbol>
    <symbol id="icon-icons8--1" viewBox="0 0 32 32">
      <path d="M16 .64c-2.041 0-3.618 1.38-4.766 3.392S9.263 8.75 8.576 11.778C7.203 17.835 6.401 25.2 5.137 30.573a.64.64 0 1 0 1.244.297l.001-.004c1.296-5.507 2.094-12.862 3.441-18.805.674-2.971 1.491-5.586 2.523-7.394S14.521 1.919 16 1.919s2.622.94 3.654 2.748 1.849 4.422 2.523 7.394c1.347 5.943 2.145 13.298 3.441 18.805a.64.64 0 1 0 1.244-.297l.001.005c-1.264-5.373-2.066-12.738-3.439-18.795-.686-3.029-1.509-5.734-2.657-7.746S18.042.64 16.001.64zm2.206 8.954a.96.96 0 0 0-.401 1.823l.006.002 1.28.64a.96.96 0 1 0 .863-1.715l-.006-.002-1.28-.64a.944.944 0 0 0-.442-.108h-.022.001zm-4.441.64a.952.952 0 0 0-.439.11l.005-.003-1.28.64a.96.96 0 1 0 .863 1.715l-.005.002 1.28-.64a.962.962 0 0 0-.417-1.825h-.007zm-.645 3.846c-1.191 0-2.142.69-2.705 1.605S9.6 17.742 9.6 18.88s.252 2.28.815 3.195 1.514 1.605 2.705 1.605 2.142-.69 2.705-1.605c.063-.102.12-.208.175-.315.055.107.112.213.175.315.563.915 1.514 1.605 2.705 1.605s2.142-.69 2.705-1.605c.563-.915.815-2.057.815-3.195s-.252-2.28-.815-3.195-1.514-1.605-2.705-1.605-2.142.69-2.705 1.605c-.063.102-.12.208-.175.315a4.596 4.596 0 0 0-.175-.315c-.563-.915-1.514-1.605-2.705-1.605zm0 1.28c.729 0 1.218.35 1.615.995s.625 1.583.625 2.525-.228 1.88-.625 2.525-.886.995-1.615.995-1.218-.35-1.615-.995-.625-1.583-.625-2.525.228-1.88.625-2.525.886-.995 1.615-.995zm5.76 0c.729 0 1.218.35 1.615.995s.625 1.583.625 2.525-.228 1.88-.625 2.525-.886.995-1.615.995-1.218-.35-1.615-.995-.625-1.583-.625-2.525.228-1.88.625-2.525.886-.995 1.615-.995zm-5.76 2.56c-.53 0-.96.573-.96 1.28s.43 1.28.96 1.28.96-.573.96-1.28-.43-1.28-.96-1.28zm5.76 0c-.53 0-.96.573-.96 1.28s.43 1.28.96 1.28.96-.573.96-1.28-.43-1.28-.96-1.28zm-8 7.04c-.533 0-1 .242-1.331.614s-.532.943-.348 1.506a.639.639 0 0 0 1.23-.029l.001-.004a10.333 10.333 0 0 0 11.135 0 .641.641 0 0 0 1.23.039l.001-.005c.185-.563-.017-1.135-.348-1.506s-.798-.614-1.331-.614h-.007a.64.64 0 0 0-.428 1.116h.001a9.027 9.027 0 0 1-9.37 0 .64.64 0 0 0-.428-1.116h-.008z"/>
    </symbol>
    <symbol id="icon-icons8--2" viewBox="0 0 32 32">
      <path  d="M9.285 1.3a2.157 2.157 0 0 0-1.313.62l-.627.629-.006.006c-.585.602-.896 1.217-.955 1.81s.144 1.116.407 1.499c.297.432.638.702.912.884l-.641 5.925a4.21 4.21 0 0 0-1.4 1.169c-.089.115-.203.258-.305.451-1.217 2.295-.253 5.04 1.799 7.103 1.547 1.555 3.741 2.791 6.264 3.305v1.54H4.46c-.7 0-1.28.58-1.28 1.28v2.56c0 .7.58 1.28 1.28 1.28H27.5c.7 0 1.28-.58 1.28-1.28v-2.56c0-.7-.58-1.28-1.28-1.28h-8.96v-1.54c2.522-.514 4.715-1.75 6.262-3.305 2.052-2.062 3.016-4.807 1.8-7.102l-.003-.006.002.004c-.102-.191-.215-.334-.304-.45h-.002a4.208 4.208 0 0 0-1.399-1.166l-.642-5.926c.274-.181.616-.451.913-.884.263-.383.466-.906.407-1.499s-.37-1.208-.955-1.81l-.006-.006-.629-.629c-.982-.982-2.657-.792-3.396.384l-.22.351c-2.593-.437-6.185-.437-8.779 0l-.221-.351a2.175 2.175 0 0 0-1.606-1.001 2.174 2.174 0 0 0-.477-.002zm.14 1.258a.894.894 0 0 1 .86.426l.001.001.425.676a.64.64 0 0 0 .669.286l-.004.001c2.47-.483 6.736-.483 9.206 0a.637.637 0 0 0 .663-.285l.002-.003.425-.676v-.002a.892.892 0 0 1 1.407-.158l.621.621c.444.457.576.798.6 1.044s-.048.443-.189.647c-.281.409-.819.699-.819.699a.642.642 0 0 0-.355.647v-.003l.622 5.746a4.834 4.834 0 0 0-1.601.004 3.531 3.531 0 0 0 .415-1.641c0-1.95-1.579-3.551-3.518-3.551-1.189 0-2.24.604-2.877 1.52a3.508 3.508 0 0 0-2.877-1.519c-1.939 0-3.518 1.602-3.518 3.551 0 .593.158 1.147.415 1.64-.05-.008-.099-.019-.149-.026a4.787 4.787 0 0 0-1.454.029l.623-5.753a.64.64 0 0 0-.351-.642l-.004-.002s-.538-.289-.819-.699c-.141-.205-.213-.402-.189-.647s.156-.587.597-1.042l.624-.623a.915.915 0 0 1 .546-.269zm9.433 5.761c1.239 0 2.238 1.005 2.238 2.271a2.253 2.253 0 0 1-1.68 2.194 1.373 1.373 0 0 0-.64-.328 13.292 13.292 0 0 0-1.453-.227 2.265 2.265 0 0 1-.703-1.639c0-1.266.998-2.271 2.238-2.271zm-5.756.001c1.239 0 2.237 1.006 2.238 2.271a2.26 2.26 0 0 1-.701 1.637c-.487.049-.973.125-1.455.227-.252.054-.468.17-.641.328a2.253 2.253 0 0 1-1.678-2.193c0-1.266.998-2.271 2.237-2.271zM13.1 9.6a.96.96 0 0 0 0 1.92.96.96 0 0 0 0-1.92zm5.76 0a.96.96 0 0 0 0 1.92.96.96 0 0 0 0-1.92zm-2.881 3.84c.847 0 1.694.089 2.529.268a.118.118 0 0 1 .056.034.645.645 0 0 0 .055.098l-.001-.002v.005a.623.623 0 0 0-.015.127v.001c-.006.016-.008.032-.019.047l-.655.934c-.471.67-1.191 1.049-1.949 1.049s-1.479-.379-1.95-1.049l-.655-.934a.213.213 0 0 1-.036-.139.632.632 0 0 0 .087-.152l.002-.004c.008-.004.015-.013.024-.015a12.115 12.115 0 0 1 2.527-.268zm6.865.001a3.38 3.38 0 0 1 1.131.221c.032.02.07.038.109.052l.004.001a2.947 2.947 0 0 1 1.383 1.178c.884 1.672.224 3.79-1.576 5.599s-4.693 3.188-7.916 3.188-6.116-1.378-7.916-3.188c-1.801-1.81-2.463-3.928-1.576-5.6.034-.065.1-.155.189-.27l.001-.001c.318-.413.736-.71 1.2-.908a.592.592 0 0 0 .11-.053l-.003.002a3.529 3.529 0 0 1 2.809.156l.902.451c.157.078.319.144.484.205.04.096.085.19.148.279l.655.932c.697.993 1.81 1.594 2.998 1.594s2.299-.601 2.996-1.594l.655-.932c.062-.089.107-.183.148-.279.165-.06.328-.127.485-.205v-.002l.902-.451a3.579 3.579 0 0 1 1.677-.376zm-.47 2.55a.638.638 0 0 0-.446.196c-1.025 1.025-2.449 1.698-3.991 2.01l-.01.002.004-.001a9.91 9.91 0 0 1-1.95.201 9.946 9.946 0 0 1-1.884-.186.592.592 0 0 0-.104-.023h-.003c-1.529-.315-2.939-.985-3.956-2.003a.636.636 0 0 0-.459-.194h-.001a.64.64 0 0 0-.445 1.099c1.099 1.099 2.517 1.836 4.049 2.234l-.387 2.329a.64.64 0 0 0 .631.745h5.12a.64.64 0 0 0 .631-.749l.001.004-.389-2.328c1.532-.398 2.951-1.136 4.05-2.235a.639.639 0 0 0-.444-1.101h-.016.001zm-7.94 3.575c.512.07 1.029.114 1.546.114s1.034-.044 1.546-.114l.259 1.554h-3.61l.259-1.554zm.266 5.329a12.859 12.859 0 0 0 2.56 0v1.345H14.7v-1.345zM4.46 27.52h9.492a.671.671 0 0 0 .212 0l-.004.001h3.631a.66.66 0 0 0 .212 0l-.004.001h9.499v2.56H4.458v-2.56zm2.56.64a.64.64 0 0 0 0 1.28.64.64 0 0 0 0-1.28zm4.48 0a.64.64 0 0 0 0 1.28.64.64 0 0 0 0-1.28zm4.48 0a.64.64 0 0 0 0 1.28.64.64 0 0 0 0-1.28zm4.48 0a.64.64 0 0 0 0 1.28.64.64 0 0 0 0-1.28zm4.48 0a.64.64 0 0 0 0 1.28.64.64 0 0 0 0-1.28z" />
    </symbol>
  </defs>
</svg>
